<mxfile host="app.diagrams.net" modified="2024-01-25T06:31:01.729Z" agent="Mozilla/5.0 (Macintosh; Intel Mac OS X 10_15_7) AppleWebKit/537.36 (KHTML, like Gecko) Chrome/120.0.0.0 Safari/537.36" version="21.6.8" etag="22ZO8TgCg78BoK-EWBWQ" type="github">
  <diagram name="第 1 页" id="yASz6yW9uBNg-jM2sYhI">
    <mxGraphModel>
      <root>
        <mxCell id="0" />
        <mxCell id="1" parent="0" />
      </root>
    </mxGraphModel>
  </diagram>
</mxfile>
